# xmcd
#
# Track frame offsets:
#	150
#	13458
#	24047
#	31951
#	48805
#
# Disc length: 771 seconds
#
# Revision: 0
# Processed by: cddbd v1.5.2PL0 Copyright (c) Steve Scherf et al.
# Submitted via: EasyCDDAExtractor 16.0.6.1
#
DISCID=2f030105
DTITLE=Λίντα Μαίρη-Χιώτης Μανώλης - Τα καλύτ. ελλ. τραγ.-Μ. Χιώτης, Μ. Λίντα
DYEAR=2005
DGENRE=Λαϊκή
TTITLE0=Λίντα Μαίρη-Χιώτης Μανώλης - Ηλιοβασιλέματα [Μ. Χιώτης]
TTITLE1=Λίντα Μαίρη - Τσιγγάνα Μαρία [Μ. Χιώτης]
TTITLE2=Λίντα Μαίρη - Κίνδυνος Θάνατος [Μ. Χιώτης-Ν. Μουρκάκος]
TTITLE3=Λίντα Μαίρη-Χιώτης Μανώλης - Δεν θέλω πια να ξαναρθείς [Μ. Χιώτης]
TTITLE4=Λίντα Μαίρη-Χιώτης Μ.-Τρίο Μπελκάντο - Φέρε παιδί μου [Μ. Χιώτης-Η. Λυ
TTITLE4=μπερόπουλος]
EXTD=
EXTT0=
EXTT1=
EXTT2=
EXTT3=
EXTT4=
PLAYORDER=
